# Star.Wars.Episode.III.Revenge.of.the.Sith.2005.1080p.BluRay.REMUX.AVC.DTS-HD.MA.6.1-FGT

```text
General
Unique ID                                : 231590483569102484729104857291048259681 (0xAE572C49A08375C9BF672A4E0B6C2461)
Complete name                            : Star.Wars.Episode.III.Revenge.of.the.Sith.2005.1080p.BluRay.REMUX.AVC.DTS-HD.MA.6.1-FGT.mkv
Format                                   : Matroska
Format version                           : Version 4
File size                                : 35.6 GiB
Duration                                 : 2 h 20 min
Overall bit rate mode                    : Variable
Overall bit rate                         : 36.3 Mb/s
Movie name                               : Star Wars: Episode III - Revenge of the Sith (2005)
Encoded date                             : UTC 2015-11-12 14:22:04
Writing application                      : mkvmerge v8.5.1 ('Crimson') 64bit
Writing library                          : libebml v1.3.3 + libmatroska v1.4.4

Video
ID                                       : 1
Format                                   : AVC
Format/Info                              : Advanced Video Codec
Format profile                           : High@L4.1
Format settings                          : CABAC / 4 Ref Frames
Format settings, CABAC                   : Yes
Format settings, Reference frames        : 4 frames
Codec ID                                 : V_MPEG4/ISO/AVC
Duration                                 : 2 h 20 min
Bit rate mode                            : Variable
Bit rate                                 : 28.5 Mb/s
Maximum bit rate                         : 40.0 Mb/s
Width                                    : 1 920 pixels
Height                                   : 1 080 pixels
Display aspect ratio                     : 16:9
Active aspect ratio                      : 2.39:1 (Hardcoded letterbox bars)
Frame rate mode                          : Constant
Frame rate                               : 23.976 (24000/1001) FPS
Color space                              : YUV
Chroma subsampling                       : 4:2:0
Bit depth                                : 8 bits
Scan type                                : Progressive
Bits/(Pixel*Frame)                       : 0.573
Stream size                              : 27.9 GiB (78%)
Language                                 : English
Default                                  : Yes
Forced                                   : No
Color range                              : Limited
Color primaries                          : BT.709
Transfer characteristics                 : BT.709
Matrix coefficients                      : BT.709

Audio #1 (English Main)
ID                                       : 2
Format                                   : DTS ES XLL / DTS
Format/Info                              : Digital Theater Systems Extended Surround / Digital Theater Systems
Commercial name                          : DTS-HD Master Audio (Discrete 6.1)
Codec ID                                 : A_DTS
Duration                                 : 2 h 20 min
Bit rate mode                            : Variable / Constant
Bit rate                                 : 5 123 kb/s / 1 509 kb/s
Channel(s)                               : 7 channels / 6 channels
Channel layout                           : C L R Ls Rs Cs LFE / C L R Ls Rs LFE
Sampling rate                            : 48.0 kHz
Frame rate                               : 93.750 FPS (512 SPF)
Bit depth                                : 24 bits
Compression mode                         : Lossless / Lossy
Stream size                              : 5.01 GiB (14%)
Language                                 : English
Default                                  : Yes
Forced                                   : No

Audio #2 (French)
ID                                       : 3
Format                                   : DTS
Format/Info                              : Digital Theater Systems
Commercial name                          : DTS 5.1
Codec ID                                 : A_DTS
Duration                                 : 2 h 20 min
Bit rate mode                            : Constant
Bit rate                                 : 768 kb/s
Channel(s)                               : 6 channels
Channel layout                           : C L R Ls Rs LFE
Sampling rate                            : 48.0 kHz
Frame rate                               : 93.750 FPS (512 SPF)
Bit depth                                : 24 bits
Compression mode                         : Lossy
Stream size                              : 771 MiB (2%)
Language                                 : French
Default                                  : No
Forced                                   : No

Audio #3 (Spanish)
ID                                       : 4
Format                                   : AC-3
Format/Info                              : Audio Coding 3
Commercial name                          : Dolby Digital 5.1
Codec ID                                 : A_AC3
Duration                                 : 2 h 20 min
Bit rate mode                            : Constant
Bit rate                                 : 448 kb/s
Channel(s)                               : 6 channels
Channel layout                           : L R C LFE Ls Rs
Sampling rate                            : 48.0 kHz
Frame rate                               : 31.250 FPS (1536 SPF)
Bit depth                                : 16 bits
Compression mode                         : Lossy
Stream size                              : 450 MiB (1%)
Language                                 : Spanish
Default                                  : No
Forced                                   : No

Audio #4 (Commentary #1)
ID                                       : 5
Format                                   : AC-3
Format/Info                              : Audio Coding 3
Commercial name                          : Dolby Digital 2.0
Codec ID                                 : A_AC3
Duration                                 : 2 h 20 min
Bit rate mode                            : Constant
Bit rate                                 : 224 kb/s
Channel(s)                               : 2 channels
Channel layout                           : L R
Sampling rate                            : 48.0 kHz
Frame rate                               : 31.250 FPS (1536 SPF)
Bit depth                                : 16 bits
Compression mode                         : Lossy
Stream size                              : 225 MiB (0.6%)
Title                                    : Commentary with George Lucas, Rick McCallum, Ben Burtt, Rob Coleman, John Knoll and Roger Guyett
Language                                 : English
Default                                  : No
Forced                                   : No

Audio #5 (Commentary #2)
ID                                       : 6
Format                                   : AC-3
Format/Info                              : Audio Coding 3
Commercial name                          : Dolby Digital 2.0
Codec ID                                 : A_AC3
Duration                                 : 2 h 20 min
Bit rate mode                            : Constant
Bit rate                                 : 224 kb/s
Channel(s)                               : 2 channels
Channel layout                           : L R
Sampling rate                            : 48.0 kHz
Frame rate                               : 31.250 FPS (1536 SPF)
Bit depth                                : 16 bits
Compression mode                         : Lossy
Stream size                              : 225 MiB (0.6%)
Title                                    : Commentary from Archival Interviews with Cast and Crew
Language                                 : English
Default                                  : No
Forced                                   : No

Subtitle #1 (English SDH)
ID                                       : 7
Format                                   : PGS
Muxing mode                              : zlib
Codec ID                                 : S_HDMV/PGS
Codec ID/Info                            : Picture-based subtitle format used on BDs/HD-DVDs
Duration                                 : 2 h 20 min
Bit rate                                 : 34.2 kb/s
Frame rate                               : 23.976 FPS
Count of elements                        : 3462
Stream size                              : 34.3 MiB (0.1%)
Language                                 : English
Default                                  : Yes
Forced                                   : No

Subtitle #2 (French)
ID                                       : 8
Format                                   : PGS
Muxing mode                              : zlib
Codec ID                                 : S_HDMV/PGS
Codec ID/Info                            : Picture-based subtitle format used on BDs/HD-DVDs
Duration                                 : 2 h 18 min
Bit rate                                 : 28.1 kb/s
Frame rate                               : 23.976 FPS
Count of elements                        : 2894
Stream size                              : 27.8 MiB (0.1%)
Language                                 : French
Default                                  : No
Forced                                   : No

Subtitle #3 (Spanish)
ID                                       : 9
Format                                   : PGS
Muxing mode                              : zlib
Codec ID                                 : S_HDMV/PGS
Codec ID/Info                            : Picture-based subtitle format used on BDs/HD-DVDs
Duration                                 : 2 h 19 min
Bit rate                                 : 26.5 kb/s
Frame rate                               : 23.976 FPS
Count of elements                        : 2780
Stream size                              : 26.4 MiB (0.1%)
Language                                 : Spanish
Default                                  : No
Forced                                   : No
```
